<svg width="2048" height="2048" viewBox="0 0 2048 2048" fill="none" xmlns="http://www.w3.org/2000/svg">
<rect width="2048" height="2048" fill="white"/>
<path d="M1183.54 911.341C1191.41 911.341 1197.8 904.957 1197.8 897.082V897.082C1197.8 823.583 1138.22 764 1064.72 764L775.823 764C770.398 764 766 768.398 766 773.823V773.823C766 849.772 827.569 911.341 903.518 911.341H1183.54Z" fill="#004F74"/>
<path d="M1069.82 764V764C1186.73 764 1281.51 858.777 1281.51 975.689V1268.89C1281.51 1276.68 1275.19 1283 1267.4 1283V1283C1158.28 1283 1069.82 1194.54 1069.82 1085.42V764Z" fill="#00BDEC"/>
<ellipse cx="930.432" cy="1085.06" rx="104.041" ry="103.74" fill="#6EBF49"/>
</svg>
