<?xml version="1.0" standalone="no"?>
<!DOCTYPE svg PUBLIC "-//W3C//DTD SVG 20010904//EN"
 "http://www.w3.org/TR/2001/REC-SVG-20010904/DTD/svg10.dtd">
<svg version="1.0" xmlns="http://www.w3.org/2000/svg"
 width="1024.000000pt" height="1024.000000pt" viewBox="0 0 1024.000000 1024.000000"
 preserveAspectRatio="xMidYMid meet">
<metadata>
Created by potrace 1.11, written by Peter Selinger 2001-2013
</metadata>
<g transform="translate(0.000000,1024.000000) scale(0.100000,-0.100000)"
fill="#000000" stroke="none">
<path d="M1712 8564 c-58 -46 -65 -72 -58 -208 3 -67 8 -132 10 -146 2 -14 7
-43 10 -65 2 -22 9 -60 15 -85 5 -25 12 -60 16 -78 12 -68 87 -280 136 -381
123 -259 312 -502 530 -684 100 -82 281 -198 399 -255 176 -84 413 -157 575
-177 33 -4 71 -10 85 -12 14 -3 490 -6 1057 -7 568 -1 1035 -4 1037 -7 3 -3 7
-639 9 -1414 2 -776 7 -1428 11 -1450 4 -22 9 -53 10 -70 14 -119 69 -360 116
-505 68 -207 177 -435 298 -625 42 -67 140 -204 152 -215 4 -3 13 -16 22 -29
41 -59 212 -240 325 -343 67 -61 233 -188 323 -247 108 -71 95 -63 257 -148
276 -143 552 -233 848 -278 61 -9 121 -18 135 -21 14 -2 105 -7 202 -11 152
-5 184 -4 221 11 58 22 107 74 121 129 8 31 11 690 10 2363 0 2039 -4 2444
-20 2529 -2 10 -6 37 -9 60 -32 219 -105 489 -178 654 -11 25 -19 47 -18 49 3
4 -131 263 -172 331 -37 61 -110 173 -129 196 -4 6 -34 44 -65 85 -32 41 -71
90 -88 109 -66 76 -244 251 -305 302 -36 30 -67 56 -70 59 -32 34 -224 163
-360 242 -265 154 -691 317 -899 343 -30 4 -63 10 -75 13 -12 4 -1018 8 -2236
9 l-2215 3 -33 -26z"/>
<path d="M3467 5454 c-1 -1 -38 -4 -82 -7 -193 -13 -410 -80 -595 -182 -644
-357 -933 -1123 -685 -1815 104 -288 311 -555 572 -734 102 -70 293 -162 388
-187 17 -4 55 -15 85 -23 30 -9 71 -18 90 -21 20 -3 47 -8 60 -11 55 -13 347
-12 430 1 337 53 621 196 853 430 209 210 343 460 408 762 32 144 32 424 1
576 -48 231 -145 445 -285 627 -52 68 -202 221 -251 255 -15 11 -33 25 -40 30
-64 60 -295 180 -426 223 -95 31 -221 58 -315 68 -48 5 -204 11 -208 8z"/>
</g>
</svg>
